<?xml version="1.0" encoding="utf-8"?>
<!-- Generator: Adobe Illustrator 16.0.0, SVG Export Plug-In . SVG Version: 6.00 Build 0)  -->
<!DOCTYPE svg PUBLIC "-//W3C//DTD SVG 1.1//EN" "http://www.w3.org/Graphics/SVG/1.1/DTD/svg11.dtd">
<svg version="1.1" id="Layer_1" xmlns="http://www.w3.org/2000/svg" xmlns:xlink="http://www.w3.org/1999/xlink" x="0px" y="0px"
	 width="792px" height="612px" viewBox="0 0 792 612" enable-background="new 0 0 792 612" xml:space="preserve">
<polygon fill="#FBF285" points="734.361,164.087 729.04,164.247 721.413,164.402 709.367,164.758 700.321,165.25 688.284,165.406 
	677.355,165.412 666.034,165.199 654.998,165.399 639.921,166.22 626.31,165.702 612.779,165.59 598.623,166.05 586.805,166.868 
	580.426,167.129 574.396,167.458 566.113,167.684 559.949,167.655 554.995,167.48 548.628,167.492 543.851,167.827 538.343,167.677 
	533.527,167.759 526.547,167.994 517.311,168.276 510.433,168.516 502.408,168.604 493.685,168.608 487.521,168.579 
	481.695,168.816 475.369,169.031 467.037,169.254 458.554,169.521 450.773,169.77 443.736,170.152 435.114,170.407 417.475,171.411 
	391.771,171.147 369.864,171.732 347.527,171.847 327.217,172.053 308.962,171.676 297.001,171.81 285.5,171.74 270.132,172.396 
	248.49,172.09 231.997,172.696 208.779,172.319 175.187,171.923 145.392,172.376 117.407,172.686 93.055,172.483 78.412,172.044 
	56.044,172.833 55.719,173.804 55.067,174.927 54.349,177.501 54.482,178.961 55.317,180.453 55.863,181.681 55.229,183.507 
	55.356,185.117 55.614,186.082 55.53,187.933 56.353,188.571 55.464,189.382 55.357,190.631 56.037,194.422 56.355,198.447 
	56.243,199.845 57.266,200.493 57.539,201.107 54.773,201.282 54.944,203.045 55.187,204.309 54.553,205.032 54.735,207.647 
	55.375,209.03 55.647,210.746 55.571,212.422 67.226,212.424 86.194,212.007 101.157,212.008 120.392,212.355 130.85,212.229 
	142.375,211.772 153.146,211.36 161.203,211.124 170.313,210.86 180.467,210.795 187.965,211.286 192.068,211.171 198.349,211.118 
	206.784,210.823 211.458,210.546 214.218,210.22 219.108,210.178 223.387,210.335 232.976,210.281 243.364,210.039 251.869,209.86 
	260.589,209.917 278.346,209.671 287.779,209.76 296.999,209.577 304.342,209.309 315.482,209.061 324.03,208.772 331.912,208.228 
	338.431,207.922 345.649,207.911 353.052,207.984 356.627,207.921 365.738,207.658 369.6,207.909 377.645,207.897 387.719,207.978 
	395.433,207.802 399.231,207.785 405.952,207.151 415.146,206.703 426.092,206.598 433.62,206.413 443.305,205.913 451.78,205.545 
	457.498,205.503 470.37,205.185 482.038,204.925 490.704,204.492 501.025,204.058 510.258,203.574 517.453,203.298 530.07,202.781 
	545.556,202.054 560.248,201.405 567.905,200.851 576.018,200.203 585.381,199.35 593.922,199.211 604.463,198.899 612.107,198.645 
	616.138,198.489 626.835,198.034 636.125,197.14 645.243,196.689 656.512,196.11 663.234,196.265 668.824,196.518 672.258,196.26 
	680.885,195.899 686.607,195.708 694.796,195.854 702.628,195.608 710.994,195.161 721.392,194.73 727.96,194.99 731.764,194.824 
	732.113,194.762 732.118,192.003 732.565,188.219 733.641,183.304 734.119,174.955 734.719,171.122 734.198,167.689 
	734.582,164.083 734.361,164.087 "/>
<polyline fill="#FBF285" points="598.623,166.05 586.805,166.868 580.426,167.129 574.396,167.458 566.113,167.684 559.949,167.655 
	554.995,167.48 548.628,167.492 543.851,167.827 538.343,167.677 533.527,167.759 526.547,167.994 517.311,168.276 510.433,168.516 
	502.408,168.604 493.685,168.608 487.521,168.579 481.695,168.816 475.369,169.031 467.037,169.254 458.554,169.521 450.773,169.77 
	443.736,170.152 435.114,170.407 417.475,171.411 391.771,171.147 369.864,171.732 347.527,171.847 327.217,172.053 
	308.962,171.676 297.001,171.81 285.5,171.74 270.132,172.396 248.49,172.09 231.997,172.696 208.779,172.319 175.187,171.923 
	145.392,172.376 117.407,172.686 93.055,172.483 78.412,172.044 64.26,172.55 64.392,172.142 65.013,171.72 65.477,171.439 
	71.009,171.314 79.092,171.306 87.7,171.357 97.463,171.613 101.599,171.612 106.628,171.802 114.557,171.899 123.924,171.798 
	127.772,171.484 135.34,171.263 143.42,171.329 150.229,171.262 164.068,171.175 170.243,170.966 176.554,171.103 182.362,171.516 
	189.09,171.559 197.513,171.527 205.708,171.561 213.43,171.234 220.079,171.348 227.039,171.287 233.618,171.285 239.671,171.259 
	247.913,171.106 251.042,170.91 258.111,170.892 263.909,170.704 269.439,170.654 274.323,170.725 282.234,170.37 288.36,170.423 
	292.567,170.5 297.387,170.343 301.119,170.136 306.269,170.145 310.066,170.167 314.685,170.301 319.636,170.526 324.753,170.457 
	329.977,170.506 334.147,170.545 341.142,170.523 347.841,170.376 354.424,170.299 358.529,170.146 363.5,169.959 368.049,169.977 
	373.356,169.842 381.029,169.776 386.607,169.465 391.608,169.467 395.776,169.581 399.092,169.431 403.928,169.725 
	409.571,169.643 415.769,169.773 423.216,169.697 427.215,169.391 429.789,169.019 430.352,169.044 432.118,169.086 
	437.391,168.875 438.631,168.894 449.477,168.483 456.786,168.138 463.371,168.022 470.218,167.92 474.163,167.986 481.349,167.898 
	486.091,167.775 499.367,167.663 507.643,167.588 515.848,167.396 522.28,167.312 530.818,167.248 536.317,167.046 543.116,167.167 
	548.268,167.137 553.42,167.108 562.621,167.337 568.078,167.209 573.648,167.085 578.621,166.859 582.837,166.75 587.914,166.718 
	"/>
<polyline fill="none" points="734.361,164.087 729.04,164.247 721.413,164.402 709.367,164.758 700.321,165.25 688.284,165.406 
	677.355,165.412 666.034,165.199 654.998,165.399 639.921,166.22 626.31,165.702 612.779,165.59 598.623,166.05 "/>
<polygon fill="#A56D22" points="731.764,194.824 727.96,194.99 721.392,194.73 710.994,195.161 702.628,195.608 694.796,195.854 
	686.607,195.708 680.885,195.899 672.258,196.26 668.824,196.518 663.234,196.265 656.512,196.11 645.243,196.689 636.125,197.14 
	626.835,198.034 616.138,198.489 612.107,198.645 604.463,198.899 593.922,199.211 585.381,199.35 576.018,200.203 567.905,200.851 
	560.248,201.405 545.556,202.054 530.07,202.781 517.453,203.298 510.258,203.574 501.025,204.058 490.704,204.492 482.038,204.925 
	470.37,205.185 457.498,205.503 451.78,205.545 443.305,205.913 433.62,206.413 426.092,206.598 415.146,206.703 405.952,207.151 
	399.231,207.785 395.433,207.802 387.719,207.978 377.645,207.897 369.6,207.909 365.738,207.658 356.627,207.921 353.052,207.984 
	345.649,207.911 338.431,207.922 331.912,208.228 324.03,208.772 315.482,209.061 304.342,209.309 296.999,209.577 287.779,209.76 
	278.346,209.671 260.589,209.917 251.869,209.86 243.364,210.039 232.976,210.281 223.387,210.335 219.108,210.178 214.218,210.22 
	211.458,210.546 206.784,210.823 198.349,211.118 192.068,211.171 187.965,211.286 180.467,210.795 170.313,210.86 161.203,211.124 
	153.146,211.36 142.375,211.772 130.85,212.229 120.392,212.355 101.157,212.008 86.194,212.007 67.226,212.424 64.067,212.431 
	65.097,212.93 70.559,213.553 72.196,213.928 71.176,215.292 72.603,215.319 73.731,215.313 76.534,215.272 81.388,215.191 
	84.869,215.104 90.813,215.017 94.5,214.959 97.037,214.999 100.304,215.091 102.408,215.111 107.921,215.004 112.715,214.996 
	117.265,214.977 119.991,214.968 123.768,215.009 127.437,214.95 130.561,214.865 134.193,214.767 137.32,214.646 142.174,214.527 
	146.375,214.343 150.099,214.304 153.067,214.345 156.83,214.29 159.521,214.224 162.792,214.204 165.3,214.054 167.546,213.836 
	169.862,213.754 172.53,213.781 176.686,213.781 179.844,213.755 182.662,213.808 185.411,213.708 188.173,213.719 191.802,213.715 
	193.647,213.648 199.524,213.389 202.892,213.334 206.468,213.233 212.086,212.886 216.36,212.742 218.386,212.815 220.414,212.87 
	224.89,212.829 228.459,212.878 230.771,212.907 233.16,212.866 238.935,212.79 244.842,212.681 247.739,212.624 248.961,212.624 
	255.184,212.624 259.493,212.538 264.89,212.482 270.251,212.424 274.256,212.38 275.479,212.379 282.213,212.271 286.18,212.263 
	290.167,212.237 297.85,211.946 301.806,211.769 305.456,211.69 309.377,211.436 312.128,211.297 314.31,211.283 320.807,211.032 
	326.486,210.972 329.142,210.866 333.077,210.725 336.5,210.692 339.683,210.574 342.469,210.493 344.82,210.449 349.426,210.434 
	352.942,210.423 356.458,210.413 360.507,210.259 362.69,210.188 364.685,210.147 366.674,210.237 369.056,210.345 371.085,210.381 
	372.739,210.381 378.02,210.433 381.104,210.385 384.872,210.217 386.303,210.151 392.447,209.809 396.024,209.689 399.545,209.585 
	404.007,209.413 410.401,209.363 413.979,209.226 416.178,209.232 427.181,209.092 428.196,209.1 435.96,208.951 446.51,208.478 
	452.636,208.254 461.767,208.067 469.388,208.062 475.462,207.886 478.071,207.804 486.156,207.519 491.88,207.277 499.262,207.011 
	507.612,206.387 513.385,206.198 525.486,205.744 533.025,205.333 546.748,204.502 556.251,203.881 564.092,203.435 
	573.999,202.731 580.637,202.281 586.713,202.055 593.846,201.727 599.373,201.426 607.714,201.002 613.845,200.679 
	618.265,200.479 622.44,200.167 628.268,199.88 633.191,199.651 641.079,199.258 650.423,198.83 658.561,198.446 661.828,198.244 
	663.921,198.539 669.095,198.323 676.736,197.817 679.688,197.951 690.576,197.744 701.618,197.442 712.217,196.971 
	721.653,196.697 731.682,196.651 732.034,196.591 732.113,194.762 731.764,194.824 "/>
<polygon fill="#A56D22" points="734.853,163.208 729.74,163.177 726.785,163.143 721.157,163.439 718.142,163.603 714.485,163.538 
	708.354,163.861 704.448,163.784 703.099,163.672 696.417,164.02 692.146,164.228 690,164.03 682.58,164.044 680.876,164.017 
	670.751,164.01 664.982,164.099 661.076,164.021 660.092,163.625 658.232,163.692 649.277,164.388 640.741,164.703 637.887,164.623 
	635.098,164.247 633.41,163.869 632.364,163.722 630.649,163.945 626.828,164.222 622.125,164.009 614.262,163.853 611.504,163.878 
	610.925,163.4 605.211,163.342 602.874,164.038 596.409,163.995 588.071,164.369 579.08,164.763 571.253,164.909 560.578,164.826 
	552.765,164.722 551.658,164.772 549.594,164.979 547.732,165.146 542.264,165.198 532.54,165.208 525.92,165.259 517.888,165.496 
	510.715,165.622 505.905,165.554 502.044,165.58 500.393,165.504 498.345,165.361 495.222,165.67 491.01,165.681 483.897,165.558 
	482.579,165.899 479.52,165.961 472.499,165.993 470.351,165.846 469.657,165.664 466.044,165.75 460.771,165.962 450.971,166.47 
	443.141,166.716 439.732,166.712 438.646,166.363 435.743,166.23 430.711,166.654 423.001,167.558 416.583,167.567 412.558,167.886 
	409.656,167.754 401.794,167.598 397.933,167.624 388.813,167.51 381.683,167.788 373.21,167.805 365.079,168.038 358.252,168.229 
	351.626,168.43 346.512,168.449 343.14,168.747 339.788,168.594 337.282,168.581 328.76,168.596 325.904,168.567 321.097,168.448 
	318.446,168.328 313.727,168.466 307.426,168.129 303.058,168.282 297.496,168.23 291.373,168.403 287.766,168.341 285.669,168.145 
	282.46,168.15 279.548,168.268 272.976,168.371 266.56,168.38 261.345,168.395 257.832,168.486 252.563,168.598 240.32,168.844 
	237.012,168.844 231.152,168.729 225.88,168.892 217.236,169.402 212.287,169.077 211.318,169.434 210.266,169.437 202.492,169.535 
	192.875,169.349 177.947,169.123 173.14,169.005 163.469,168.917 153.948,168.836 144.222,168.846 137.607,168.796 134.695,168.915 
	134.424,169.354 133.96,169.634 132.146,169.853 127.393,169.637 119.325,169.571 114.659,169.66 108.344,169.625 101.732,169.525 
	95.46,169.642 87.144,169.515 75.625,169.293 67.356,169.219 64.886,169.236 65.418,169.49 65.77,169.736 65.76,169.953 
	65.48,170.545 65.374,170.733 65.486,170.92 65.618,171.228 65.477,171.439 71.009,171.314 79.092,171.306 87.7,171.357 
	97.463,171.613 101.599,171.612 106.628,171.802 114.557,171.899 123.924,171.798 127.772,171.484 135.34,171.263 143.42,171.329 
	150.229,171.262 164.068,171.175 170.243,170.966 176.554,171.103 182.362,171.516 189.09,171.559 197.513,171.527 205.708,171.561 
	213.43,171.234 220.079,171.348 227.039,171.287 233.618,171.285 239.671,171.259 247.913,171.106 251.042,170.91 258.111,170.892 
	263.909,170.704 269.439,170.654 274.323,170.725 282.234,170.37 288.36,170.423 292.567,170.5 297.387,170.343 301.119,170.136 
	306.269,170.145 310.066,170.167 314.685,170.301 319.636,170.526 324.753,170.457 329.977,170.506 334.147,170.545 
	341.142,170.523 347.841,170.376 354.424,170.299 358.529,170.146 363.5,169.959 368.049,169.977 373.356,169.842 381.029,169.776 
	386.607,169.465 391.608,169.467 395.776,169.581 399.092,169.431 403.928,169.725 409.571,169.643 415.769,169.773 
	423.216,169.697 427.215,169.391 429.789,169.019 430.352,169.044 432.118,169.086 437.391,168.875 438.631,168.894 
	449.477,168.483 456.786,168.138 463.371,168.022 470.218,167.92 474.163,167.986 481.349,167.898 486.091,167.775 499.367,167.663 
	507.643,167.588 515.848,167.396 522.28,167.312 530.818,167.248 536.317,167.046 543.116,167.167 548.268,167.137 553.42,167.108 
	562.621,167.337 568.078,167.209 573.648,167.085 578.621,166.859 582.837,166.75 587.914,166.718 598.623,166.05 612.779,165.59 
	626.31,165.702 639.921,166.22 654.998,165.399 666.034,165.199 677.355,165.412 688.284,165.406 700.321,165.25 709.367,164.758 
	721.413,164.402 729.04,164.247 734.361,164.087 734.582,164.083 735.084,163.214 734.853,163.208 "/>
<polygon fill="#A56D22" points="395.139,186.921 400.015,186.391 404.052,186.048 410.08,185.757 418.997,185.635 425.131,185.5 
	432.62,185.351 437.248,185.261 442.675,184.98 447.944,184.843 453.859,184.585 460.001,184.3 467.378,184.108 470.546,183.914 
	474.795,183.881 484.689,183.728 486.717,183.82 487.792,184.132 489.784,184.147 495.594,183.734 499.981,183.144 505.899,182.811 
	509.692,182.908 513.118,182.8 517.256,182.762 527.973,182.721 531.993,182.778 542.277,182.594 547.647,182.486 554.576,182.199 
	561.557,181.964 569.102,181.404 574.259,181.538 577.262,181.625 580.27,181.61 584.65,181.207 588.274,180.87 593.087,180.888 
	595.388,180.992 602.006,180.942 608.273,180.925 612.58,181.021 615.168,181.438 617.03,181.272 620.267,180.667 622.125,180.602 
	625.069,180.885 628.462,181.24 634.352,181.808 640.168,181.771 645.558,181.213 651.6,180.635 658.482,180.295 666.706,180.268 
	675.002,179.691 680.367,179.634 683.812,179.991 688.346,180.598 694.794,180.991 702.174,180.774 707.538,180.767 
	713.092,180.969 717.86,180.884 726.82,181.14 733.485,181.192 733.7,181.151 733.877,180.558 733.954,178.87 733.465,178.885 
	731.961,178.892 723.308,179.026 713.375,179.176 705.778,179.208 701.484,179.389 693.298,179.168 687.82,178.919 681.442,178.63 
	673.702,178.505 664.285,178.904 656.382,179.072 646.865,179.994 640.311,180.299 632.124,180.078 625.816,179.866 
	622.519,179.642 617.382,180.161 614.977,180.126 611.386,179.738 603.042,179.66 596.941,179.91 596.575,179.668 589.198,179.86 
	579.856,180.263 569.091,180.526 566.382,180.592 564.645,180.776 560.646,181.045 554.131,181.276 545.702,181.458 
	539.562,181.706 533.006,182.01 526.728,181.988 520.787,181.982 513.229,182.015 507.615,182.287 502.046,182.373 497.601,182.584 
	495.634,182.834 491.63,183.253 487.863,183.42 486.898,183.114 486.27,182.897 480.205,183.149 476.396,183.389 465.776,183.772 
	460.805,183.96 453.387,184.225 447.283,184.513 443.219,184.592 437.23,184.846 425.422,184.912 411.873,185.199 402.006,185.579 
	397.908,186.371 395.139,186.921 "/>
<polyline fill="#A56D22" points="734.406,173.123 732.594,173.231 726.432,173.152 721.26,173.318 707.809,173.711 697.471,173.943 
	686.48,174.197 681.279,173.911 674.875,173.67 668.801,173.847 658.814,174.095 651.076,174.496 644.746,174.81 638.467,175.077 
	629.754,174.882 623.38,175.044 614.442,175.34 605.929,175.154 595.883,175.601 583.886,175.959 579.675,175.969 567.187,176.104 
	562.118,176.225 557.701,176.325 552.686,176.398 545.554,176.676 535.771,176.834 526.799,176.828 517.664,177.066 
	507.455,177.806 496.668,178.018 490.351,178.525 485.02,178.715 492.363,177.873 497.131,177.187 508.572,176.954 514.304,176.537 
	519.057,176.227 528.853,175.768 539.991,175.521 546.841,175.381 549.328,175.269 551.394,174.46 563.953,174.428 584.962,173.803 
	591.674,173.354 604.092,173.091 617.169,173.233 630.797,172.874 639.061,173.023 644.689,173.278 648.775,172.711 657.363,172.35 
	664.37,172.066 672.565,172.062 677.097,172.039 681.729,172.441 686.703,172.715 690.822,172.806 701.52,172.667 710.636,172.506 
	722.064,172.113 727.249,171.965 733.476,172.104 734.58,172.007 "/>
<polyline fill="#A56D22" points="259.735,198.795 263.625,198.636 269.804,198.772 277.903,198.852 284.269,199.092 
	291.843,199.101 297.352,199.207 308.73,198.86 318.983,198.99 324.267,198.798 335.102,198.81 352.127,198.671 359.272,198.66 
	368.912,198.57 375.484,198.484 381.73,198.193 388.796,197.794 395.727,197.197 397.614,196.804 393.895,196.966 381.329,197.699 
	368.281,198.011 354.065,197.566 343.422,197.885 331.084,198.027 316.336,198.26 305.198,198.457 297.732,198.369 296.443,198.611 
	292.834,198.598 282.977,198.752 276.298,198.449 263.296,198.311 259.598,198.594 "/>
<linearGradient id="SVGID_1_" gradientUnits="userSpaceOnUse" x1="208.1924" y1="210.8477" x2="246.9141" y2="210.8477" gradientTransform="matrix(0.999 0.0453 -0.0453 0.999 9.1475 -17.668)">
	<stop  offset="0" style="stop-color:#0E9B49"/>
	<stop  offset="0.5" style="stop-color:#088F45"/>
	<stop  offset="0.5396" style="stop-color:#099146"/>
	<stop  offset="0.7366" style="stop-color:#0D9948"/>
	<stop  offset="1" style="stop-color:#0E9B49"/>
</linearGradient>
<polyline opacity="0.4" fill="url(#SVGID_1_)" points="246.403,201.078 241.938,201.703 232.738,202.262 224.426,203.164 
	217.563,203.604 209.906,204.986 207.44,205.477 208.907,205.468 212.6,205.296 216.892,205.153 222.554,204.658 227.528,204.395 
	231.275,203.851 237.703,203.052 241.422,202.281 244.791,201.794 246.019,201.249 "/>
<linearGradient id="SVGID_2_" gradientUnits="userSpaceOnUse" x1="321.7031" y1="193.5366" x2="374.3086" y2="193.5366" gradientTransform="matrix(0.999 0.0453 -0.0453 0.999 9.1475 -17.668)">
	<stop  offset="0" style="stop-color:#0E9B49"/>
	<stop  offset="0.5" style="stop-color:#088F45"/>
	<stop  offset="0.5396" style="stop-color:#099146"/>
	<stop  offset="0.7366" style="stop-color:#0D9948"/>
	<stop  offset="1" style="stop-color:#0E9B49"/>
</linearGradient>
<polyline opacity="0.4" fill="url(#SVGID_2_)" points="374.47,189.217 369.299,190.487 363.095,191.333 354.844,192.538 
	348.967,192.798 338.482,193.525 331.237,194.099 331.063,194.066 332.38,193.774 334.652,193.427 339.391,192.839 341.824,192.248 
	338.196,192.635 334.019,192.997 330.902,193.206 328.753,193.059 325.895,193.079 322.632,193.182 321.624,193.286 
	324.049,192.895 326.459,192.804 328.462,192.845 332.269,192.917 336.149,192.442 341.296,191.723 349.55,190.995 354.668,190.876 
	360.155,190.373 365.436,190.01 368.801,189.862 371.375,189.478 373.03,189.453 "/>
<polyline fill="none" stroke="#000000" stroke-width="0.1502" points="56.044,172.833 78.412,172.044 93.055,172.483 
	117.407,172.686 145.392,172.376 175.187,171.923 208.779,172.319 231.997,172.696 248.49,172.09 270.132,172.396 285.5,171.74 
	297.001,171.81 308.962,171.676 327.217,172.053 347.527,171.847 369.864,171.732 391.771,171.147 417.475,171.411 435.114,170.407 
	443.736,170.152 450.773,169.77 458.554,169.521 467.037,169.254 475.369,169.031 481.695,168.816 487.521,168.579 493.685,168.608 
	502.408,168.604 510.433,168.516 517.311,168.276 526.547,167.994 533.527,167.759 538.343,167.677 543.851,167.827 
	548.628,167.492 554.995,167.48 559.949,167.655 566.113,167.684 574.396,167.458 580.426,167.129 586.805,166.868 598.623,166.05 
	612.779,165.59 626.31,165.702 639.921,166.22 654.998,165.399 666.034,165.199 677.355,165.412 688.284,165.406 700.321,165.25 
	709.367,164.758 721.413,164.402 729.04,164.247 734.361,164.087 "/>
<polyline fill="none" stroke="#000000" stroke-width="0.1502" points="56.044,172.833 78.412,172.044 93.055,172.483 
	117.407,172.686 145.392,172.376 175.187,171.923 208.779,172.319 231.997,172.696 248.49,172.09 270.132,172.396 285.5,171.74 
	297.001,171.81 308.962,171.676 327.217,172.053 347.527,171.847 369.864,171.732 391.771,171.147 417.475,171.411 435.114,170.407 
	443.736,170.152 450.773,169.77 458.554,169.521 467.037,169.254 475.369,169.031 481.695,168.816 487.521,168.579 493.685,168.608 
	502.408,168.604 510.433,168.516 517.311,168.276 526.547,167.994 533.527,167.759 538.343,167.677 543.851,167.827 
	548.628,167.492 554.995,167.48 559.949,167.655 566.113,167.684 574.396,167.458 580.426,167.129 586.805,166.868 598.623,166.05 
	"/>
<polyline fill="none" stroke="#000000" stroke-width="0.1502" points="55.571,212.422 67.226,212.424 86.194,212.007 
	101.157,212.008 120.392,212.355 130.85,212.229 142.375,211.772 153.146,211.36 161.203,211.124 170.313,210.86 180.467,210.795 
	187.965,211.286 192.068,211.171 198.349,211.118 206.784,210.823 211.458,210.546 214.218,210.22 219.108,210.178 223.387,210.335 
	232.976,210.281 243.364,210.039 251.869,209.86 260.589,209.917 278.346,209.671 287.779,209.76 296.999,209.577 304.342,209.309 
	315.482,209.061 324.03,208.772 331.912,208.228 338.431,207.922 345.649,207.911 353.052,207.984 356.627,207.921 365.738,207.658 
	369.6,207.909 377.645,207.897 387.719,207.978 395.433,207.802 399.231,207.785 405.952,207.151 415.146,206.703 426.092,206.598 
	433.62,206.413 443.305,205.913 451.78,205.545 457.498,205.503 470.37,205.185 482.038,204.925 490.704,204.492 501.025,204.058 
	510.258,203.574 517.453,203.298 530.07,202.781 545.556,202.054 560.248,201.405 567.905,200.851 576.018,200.203 585.381,199.35 
	593.922,199.211 604.463,198.899 612.107,198.645 616.138,198.489 626.835,198.034 636.125,197.14 645.243,196.689 656.512,196.11 
	663.234,196.265 668.824,196.518 672.258,196.26 680.885,195.899 686.607,195.708 694.796,195.854 702.628,195.608 710.994,195.161 
	721.392,194.73 727.96,194.99 731.764,194.824 "/>
<polyline fill="none" stroke="#000000" stroke-width="0.1502" points="733.465,178.885 731.961,178.892 723.308,179.026 
	713.375,179.176 705.778,179.208 701.484,179.389 693.298,179.168 687.82,178.919 681.442,178.63 673.702,178.505 664.285,178.904 
	656.382,179.072 646.865,179.994 640.311,180.299 632.124,180.078 625.816,179.866 622.519,179.642 617.382,180.161 
	614.977,180.126 611.386,179.738 603.042,179.66 596.941,179.91 596.575,179.668 589.198,179.86 579.856,180.263 569.091,180.526 
	560.885,180.755 545.536,180.962 533.87,181.185 519.209,181.121 505.349,181.695 496.682,182.129 491.309,182.863 486.875,182.812 
	486.508,182.645 482.894,182.707 471.97,183.188 462.626,183.592 443.264,184.443 437.23,184.846 425.422,184.912 411.873,185.199 
	402.006,185.579 397.908,186.371 387.687,187.938 381.137,189.219 378.001,189.277 374.47,189.217 369.299,190.487 363.095,191.333 
	354.844,192.538 348.967,192.798 338.482,193.525 331.237,194.099 326.575,194.113 323.256,194.338 318.047,194.779 
	313.576,195.553 305.414,196.461 300.745,196.625 298.909,197.293 297.732,198.369 296.443,198.611 292.834,198.598 
	282.977,198.752 276.298,198.449 263.296,198.311 259.598,198.594 259.108,199.474 258.641,199.829 257.293,199.692 
	254.415,200.164 251.024,200.31 246.403,201.078 241.938,201.703 232.738,202.262 224.426,203.164 217.563,203.604 209.906,204.986 
	202.321,206.447 199.588,207 198.559,208.156 194.69,208.883 185.14,210.555 "/>
<polyline fill="none" stroke="#000000" stroke-width="0.1502" points="55.291,203.687 61.912,203.612 70.861,203.566 
	77.485,203.416 85.917,203.196 91.709,203.159 96.303,202.991 "/>
<polyline fill="none" stroke="#000000" stroke-width="0.1502" points="54.807,206.072 62.778,206.057 74.815,205.927 78.431,205.79 
	86.484,205.629 94.601,205.696 98.896,205.514 "/>
<polyline fill="none" stroke="#000000" stroke-width="0.1502" points="54.871,207.953 63.518,207.97 74.884,207.734 85.57,207.542 
	95.58,207.319 107.16,207.319 "/>
<polyline fill="none" stroke="#000000" stroke-width="0.1502" points="55.619,209.718 61.257,209.748 70.436,209.638 
	80.883,209.736 92.405,209.356 99.026,209.28 108.054,209.164 115.21,208.887 "/>
<polyline fill="none" stroke="#000000" stroke-width="0.1502" points="57.763,200.566 64.838,200.436 72.591,200.261 
	80.275,199.932 88.325,199.847 91.111,199.748 "/>
<polyline fill="none" stroke="#000000" stroke-width="0.1502" points="56.371,188.171 69.319,187.856 88.282,187.513 
	107.95,188.255 131.881,187.837 147.49,188.545 159.673,188.496 175.687,188.545 188.617,188.606 205.25,188.307 214.496,188.351 
	223.767,187.87 238.017,187.012 254.949,186.728 263.009,186.417 276.106,186.109 287.441,186.548 301.794,186.747 313.091,186.358 
	328.989,185.65 341.548,185.618 346.521,185.393 360.229,184.887 371.314,184.187 383.839,183.251 392.274,182.957 402.25,181.83 
	412.426,181.314 424.312,181.177 430.111,180.989 449.239,180.353 462.272,179.816 471.082,179.539 480.8,179.153 492.363,177.873 
	497.131,177.187 508.572,176.954 514.304,176.537 519.057,176.227 528.853,175.768 539.991,175.521 546.841,175.381 
	549.328,175.269 551.394,174.46 563.953,174.428 584.962,173.803 591.674,173.354 604.092,173.091 617.169,173.233 630.797,172.874 
	639.061,173.023 644.689,173.278 648.775,172.711 657.363,172.35 664.37,172.066 672.565,172.062 677.396,171.68 683.992,172.128 
	692.8,171.927 707.694,171.776 714.328,171.4 726.598,171.129 734.719,171.122 "/>
<polyline fill="none" stroke="#000000" stroke-width="0.1502" points="370.179,184.361 384.354,183.5 393.171,183.073 
	404.785,182.321 418.187,181.952 430.162,181.518 447.492,180.725 456.911,180.325 459.925,180.161 469.94,179.864 471.583,180.088 
	477.458,179.903 488.907,179.445 494.337,179.09 500.058,178.974 509.468,178.723 518.812,178.321 528.661,178.316 542.203,178.179 
	547.453,177.916 549.87,177.675 558.995,177.637 567.868,177.639 576.396,177.524 581.766,177.417 589.645,177.173 599.375,177.063 
	609.622,176.625 615.677,176.85 621.905,176.582 628.681,176.388 635.44,176.594 642.313,176.454 649.504,175.979 655.091,175.48 
	662.729,175.075 671.709,174.93 677.769,175.055 685.266,175.546 696.743,175.615 706.534,175.257 714.808,175.182 723.343,174.917 
	728.403,174.996 734.119,174.955 "/>
<polyline fill="none" stroke="#000000" stroke-width="0.1502" points="575.886,174.105 579.657,173.011 585.979,172.896 
	591.2,172.731 595.785,171.135 606.54,170.521 620.676,170.56 628.902,170.432 639.115,170.695 644.246,170.326 654.606,169.593 
	670.082,168.792 688.732,168.734 706.797,168.352 730.982,167.845 734.198,167.689 "/>
<polyline fill="none" stroke="#000000" stroke-width="0.1502" points="297.732,198.369 305.198,198.457 316.336,198.26 
	331.084,198.027 343.422,197.885 354.065,197.566 368.281,198.011 381.329,197.699 393.895,196.966 404.846,196.46 417.475,196.532 
	423.797,196.418 430.445,195.717 435.757,195.757 437.283,196.378 439.716,196.89 442.579,196.769 445.448,196.498 448.137,195.817 
	452.342,195.958 458.263,195.826 461.575,196.829 464.133,196.794 467.05,196.626 469.8,195.647 472.182,195.104 482.623,194.776 
	485.436,194.653 490.099,194.613 495.664,194.615 497.561,194.801 500.443,194.23 504.218,193.9 512.601,193.679 517.873,193.467 
	522.234,194.568 526.928,194.981 531.899,194.805 536.135,194.245 538.233,193.288 539.861,192.761 547.247,192.394 555.13,192.1 
	557.32,192.45 562.033,192.463 569.2,192.487 573.013,192.41 575.401,191.716 578.406,191.752 581.252,192.031 586.267,192.008 
	593.831,192.101 599.805,191.921 606.882,191.741 "/>
<polyline fill="none" stroke="#000000" stroke-width="0.1502" points="321.624,193.286 324.049,192.895 326.459,192.804 
	328.462,192.845 332.269,192.917 336.149,192.442 341.296,191.723 349.55,190.995 354.668,190.876 360.155,190.373 365.436,190.01 
	368.801,189.862 371.375,189.478 373.03,189.453 "/>
<polyline fill="none" stroke="#000000" stroke-width="0.1502" points="322.632,193.182 325.895,193.079 328.753,193.059 
	330.902,193.206 334.019,192.997 338.196,192.635 341.824,192.248 339.391,192.839 334.652,193.427 332.38,193.774 331.063,194.066 
	"/>
<polyline fill="none" stroke="#000000" stroke-width="0.1502" points="331.237,194.099 326.575,194.113 323.256,194.338 
	318.047,194.779 313.576,195.553 305.414,196.461 300.745,196.625 298.909,197.293 297.732,198.369 296.443,198.611 
	292.834,198.598 282.977,198.752 276.298,198.449 263.296,198.311 259.598,198.594 259.108,199.474 258.641,199.829 
	257.293,199.692 254.415,200.164 251.024,200.31 246.403,201.078 241.938,201.703 232.738,202.262 224.426,203.164 217.563,203.604 
	209.906,204.986 207.375,205.475 202.321,206.447 199.588,207 198.559,208.156 194.69,208.883 185.14,210.555 "/>
<polyline fill="none" stroke="#000000" stroke-width="0.1502" points="207.375,205.475 202.321,206.447 199.588,207 
	198.559,208.156 194.69,208.883 183.319,210.924 "/>
<polyline fill="none" stroke="#000000" stroke-width="0.1502" points="733.465,178.885 731.961,178.892 723.308,179.026 
	713.375,179.176 705.778,179.208 701.484,179.389 693.298,179.168 687.82,178.919 681.442,178.63 673.702,178.505 664.285,178.904 
	656.382,179.072 646.865,179.994 640.311,180.299 632.124,180.078 625.816,179.866 622.519,179.642 617.382,180.161 
	614.977,180.126 611.386,179.738 603.042,179.66 596.941,179.91 596.575,179.668 589.198,179.86 579.856,180.263 569.091,180.526 
	560.885,180.755 545.536,180.962 533.87,181.185 519.209,181.121 505.349,181.695 496.682,182.129 491.309,182.863 486.875,182.812 
	486.508,182.645 482.894,182.707 471.97,183.188 462.626,183.592 443.264,184.443 437.23,184.846 "/>
<polyline fill="none" stroke="#000000" stroke-width="0.1502" points="496.668,178.018 507.455,177.806 517.664,177.066 
	526.799,176.828 535.771,176.834 545.554,176.676 552.686,176.398 557.701,176.325 562.118,176.225 567.187,176.104 
	579.675,175.969 583.886,175.959 595.883,175.601 605.929,175.154 614.442,175.34 623.38,175.044 629.754,174.882 638.467,175.077 
	644.746,174.81 651.076,174.496 658.814,174.095 668.801,173.847 674.875,173.67 681.279,173.911 686.48,174.197 697.471,173.943 
	707.809,173.711 721.26,173.318 726.432,173.152 732.594,173.231 733.951,173.143 "/>
<polyline fill="none" stroke="#000000" stroke-width="0.1502" points="672.565,172.062 677.396,171.68 683.992,172.128 
	692.8,171.927 707.694,171.776 714.328,171.4 726.598,171.129 734.719,171.122 "/>
<polyline fill="none" stroke="#000000" stroke-width="0.1502" points="623.019,189.615 634.243,189.723 652.343,188.54 
	665.89,188.252 683.445,188.045 693.892,187.617 705.357,187.937 713.841,187.67 722.452,187.911 724.751,188.064 725.894,188.316 
	730.257,188.265 732.565,188.219 "/>
<polyline fill="none" stroke="#000000" stroke-width="0.1502" stroke-dasharray="1.8028" points="607.46,191.667 610.855,191.444 
	617.983,190.113 622.217,189.629 622.744,189.578 "/>
<text transform="matrix(0.999 0.0453 -0.0453 0.999 615.415 193.208)" font-family="'MyriadPro-Regular'" font-size="1.8028">?</text>
<polyline fill="none" stroke="#000000" stroke-width="0.1502" points="238.947,208.786 242.295,208.749 247.452,208.607 
	250.881,208.425 257.27,208.489 261.785,208.43 269.61,208.297 276.792,208.285 284.129,208.166 293.149,208.237 298.982,208.125 
	"/>
<polyline fill="none" stroke="#000000" stroke-width="0.1502" points="246.403,201.078 241.938,201.703 232.738,202.262 
	224.426,203.164 217.563,203.604 209.906,204.986 207.44,205.477 208.907,205.468 212.6,205.296 216.892,205.153 222.554,204.658 
	227.528,204.395 231.275,203.851 237.703,203.052 241.422,202.281 244.791,201.794 246.019,201.249 "/>
<polyline fill="none" stroke="#000000" stroke-width="0.1502" points="331.237,194.099 326.575,194.113 323.256,194.338 
	318.047,194.779 313.576,195.553 305.414,196.461 300.745,196.625 298.909,197.293 297.732,198.369 "/>
<polyline fill="none" stroke="#000000" stroke-width="0.1502" points="237.003,205.49 241.71,205.603 247.129,205.497 
	252.548,205.392 259.174,205.192 265.696,205.086 278.041,204.794 287.853,205.089 294.179,204.875 304.967,204.663 
	314.703,204.402 317.566,204.282 324.342,204.087 331.671,203.869 340.708,203.577 349.792,203.337 359.17,203.261 374.107,203.287 
	381.488,203.021 388.653,203.095 395.441,202.651 405.885,202.272 416.366,202.197 428.266,201.784 438.408,201.392 446.95,200.978 
	454.431,200.715 463.619,200.38 477.363,200.201 486.703,199.874 495.896,199.438 507.795,199.025 518.949,198.479 524.784,198.042 
	540.145,197.585 553.611,196.894 561.742,196.66 570.482,196.255 580.689,195.565 590.287,195.048 599.813,195.029 609.751,194.778 
	616.274,194.624 620.303,194.254 622.317,194.045 "/>
<polyline fill="none" stroke="#000000" stroke-width="0.1502" points="306.768,196.447 308.912,196.432 313.347,196.445 
	316.663,196.295 317.832,196.197 320.692,196.14 324.16,195.958 329.5,195.938 331.75,196.077 334.034,196.256 338.202,196.37 
	342.455,196.3 345.625,196.03 349.131,195.812 352.484,195.664 354.929,195.625 358.233,195.737 360.298,195.792 362.812,195.907 
	367.438,195.854 370.333,195.873 374.648,196.068 378.216,196.155 381.236,195.878 384.896,195.593 388.253,195.333 
	392.962,195.131 397.52,194.925 402.465,194.51 408.678,194.304 413.09,194.015 415.506,193.786 418.06,193.865 421.897,193.813 
	426.495,193.57 429.996,193.466 431.322,193.225 434.6,193.073 435.619,193.006 436.619,193.353 438.542,193.214 442.382,193.088 
	446.408,193.007 "/>
<polyline fill="none" stroke="#000000" stroke-width="0.1502" points="322.528,195.483 326.341,195.406 329.599,195.403 
	333.249,195.618 338.2,195.894 341.77,195.654 346.24,195.456 350.561,195.251 355.225,195.211 359.826,195.42 364.591,195.386 
	368.804,195.327 374.907,195.604 378.313,195.658 380.98,195.428 384.048,195.216 388.775,194.879 392.853,194.513 398.477,194.317 
	401.396,194.049 405.111,193.916 410.485,193.708 414.556,193.492 419.12,193.398 424.843,193.257 429.968,192.988 432.337,192.694 
	436.043,192.763 438.545,192.876 442.116,192.587 444.575,192.548 446.577,192.639 449.03,192.7 454.1,192.529 459.224,192.311 
	464.848,192.114 469.256,192.164 471.658,192.273 475.917,192.315 480.575,192.377 485.533,192.501 489.994,192.503 497.53,192.143 
	501.501,191.922 504.022,191.585 509.644,191.439 511.7,191.383 513.634,190.769 516.174,191.135 518.764,191.502 520.404,191.828 
	522.962,191.793 525.54,191.309 528.854,191.208 531.914,191.146 532.564,190.073 534.979,189.882 538.443,189.789 540.201,189.718 
	545.913,189.776 547.579,189.501 548.3,189.083 553.812,189.132 557.922,189.168 561.57,189.383 565.396,189.056 566.996,189.128 
	568.478,189.647 570.464,190.038 573.803,190.49 574.65,190.578 575.287,189.806 577.276,190.146 580.504,190.844 582.995,191.158 
	585.25,191.21 588.211,191.144 592.586,190.791 595.214,190.359 596.078,188.995 597.877,189.125 600.716,189.505 602.461,189.735 
	604.897,190.146 606.704,190.128 609.012,190.083 612.096,189.521 616.643,188.724 621.12,187.273 624.091,187.007 626.437,187.214 
	630.272,187.739 633.724,187.896 636.601,187.474 638.28,186.898 640.785,186.962 645.039,187.105 649.328,186.498 651.334,186.488 
	656.001,186.349 661.476,186.146 "/>
<polyline fill="none" stroke="#000000" stroke-width="0.1502" points="322.25,194.969 323.86,194.841 326.913,194.93 
	330.432,194.739 335.747,194.679 342.675,194.492 349.9,194.318 354.105,194.459 359.469,194.452 363.08,194.416 367.835,194.581 
	372.79,194.755 376.137,195.008 378.8,194.878 381.817,194.664 386.095,194.306 389.564,194.063 394.597,193.64 400.37,193.45 
	407.493,193.322 412.577,192.901 416.597,192.682 422.478,192.348 427.789,192.388 431.21,192.143 435.476,192.036 437.575,192.131 
	440.686,192.121 445.257,191.877 451.021,191.888 456.592,191.74 460.569,191.369 464.09,191.128 469.905,191.141 473.926,190.872 
	477.14,190.767 485.615,190.7 490.833,190.586 497.616,190.242 504.905,189.821 509.971,189.75 512.738,189.524 513.906,189.177 
	517.863,189.256 523.676,189.319 532.172,188.802 532.837,188.481 535.598,188.406 541.967,188.344 545.332,188.196 
	547.692,188.103 548.063,187.668 551.519,187.725 556.488,187.599 557.996,187.518 558.284,187.781 561.286,187.917 562.437,187.97 
	562.801,187.685 565.969,187.478 570.823,187.648 575.082,187.691 578.048,187.525 585.584,187.165 596.834,186.672 
	602.801,186.643 606.543,187.013 610.605,186.997 614.304,187.215 615.448,187.417 616.965,187.135 619.767,186.159 621.602,185.49 
	624.364,185.365 626.132,185.095 628.226,185.34 629.818,185.612 633.363,185.923 637.633,185.716 642.344,185.729 647.511,185.663 
	650.446,185.044 654.211,184.964 660.241,184.636 663.551,184.586 664.544,184.782 666.953,184.741 671.979,184.467 676.708,184.08 
	680.704,184.412 682.852,184.56 687.122,184.352 692.744,184.206 696.449,184.274 700.414,184.204 706.633,184.134 712.109,183.881 
	718.741,183.531 726.264,183.471 728.369,183.466 733.641,183.304 "/>
<polyline fill="none" stroke="#000000" stroke-width="0.1502" points="733.485,181.192 726.82,181.14 717.86,180.884 
	713.092,180.969 707.538,180.767 702.174,180.774 694.794,180.991 688.346,180.598 683.812,179.991 680.367,179.634 
	675.002,179.691 666.706,180.268 658.482,180.295 651.6,180.635 645.558,181.213 640.168,181.771 634.352,181.808 628.462,181.24 
	625.069,180.885 622.125,180.602 620.267,180.667 617.03,181.272 615.168,181.438 612.58,181.021 608.273,180.925 602.006,180.942 
	595.388,180.992 593.087,180.888 588.274,180.87 584.65,181.207 580.27,181.61 577.262,181.625 574.259,181.538 569.102,181.404 
	561.557,181.964 554.576,182.199 547.647,182.486 542.277,182.594 531.993,182.778 522.513,182.9 512.674,183.206 503.979,183.713 
	497.427,184.469 490.285,184.997 485.473,184.979 483.12,184.923 473.391,185.032 464.005,185.258 450.796,185.812 438.352,186.1 
	428.568,186.258 424.806,186.337 412.815,186.546 406.541,186.712 401.613,187.04 395.417,187.711 387.687,187.938 "/>
<polyline fill="none" stroke="#000000" stroke-width="0.1502" points="591.2,172.731 593.844,172.739 597.62,172.384 
	602.217,172.179 609.669,171.99 617.326,172.263 622.412,172.042 626.26,171.766 631.257,171.842 633.883,171.961 639.018,172.307 
	643.234,172.198 646.479,171.932 650.368,171.581 653.458,171.42 656.399,171.253 662.166,170.914 669.889,170.587 679.25,170.599 
	685.233,170.456 689.422,170.157 691.448,170.211 693.812,170.319 700.248,170.16 705.51,170.21 712.166,170.174 719.169,169.965 
	725.451,169.875 729.746,169.693 732.833,169.608 "/>
<polyline fill="none" stroke="#000000" stroke-width="0.1502" points="235.599,207.731 240.314,207.645 246.589,207.478 
	252.509,207.346 259.531,207.263 266.051,207.208 273.528,207.045 283.246,207.186 289.816,207.133 296.039,206.964 
	302.315,206.748 308.441,206.524 "/>
<polyline fill="none" stroke="#000000" stroke-width="0.1502" points="240.385,203.888 243.197,203.765 246.813,203.628 
	250.677,203.553 256.534,203.718 262.605,203.593 269.784,203.367 278.414,203.207 284.023,203.312 291.239,203.388 
	298.417,203.162 304.898,202.855 309.16,202.848 "/>
<polyline fill="none" stroke="#000000" stroke-width="0.1502" points="244.791,201.794 248.109,201.582 255.386,201.41 
	261.755,201.348 268.924,201.322 278.705,201.215 281.813,201.205 286.87,201.335 295.693,201.334 301.974,201.017 307.643,200.923 
	313.869,200.705 "/>
<polyline fill="none" stroke="#000000" stroke-width="0.1502" points="354.67,201.904 362.192,201.845 370.919,201.739 
	380.452,201.57 387.973,201.511 391.694,201.278 406.557,200.75 418.39,200.684 428.731,200.352 435.967,199.978 446.417,199.449 
	455.351,199.253 466.597,198.861 477.233,198.642 481.045,198.614 487.581,198.208 497.932,197.676 514.395,197.22 522.225,196.974 
	536.188,196.404 546.124,196.153 551.254,195.784 562.506,195.292 570.441,194.95 581.605,194.152 589.442,193.807 594.059,193.715 
	599.37,193.756 604.696,193.496 "/>
<polyline fill="none" stroke="#000000" stroke-width="0.1502" points="327.069,200.351 335.401,200.128 347.829,200.19 
	356.87,199.799 371.201,199.947 376.822,199.802 383.744,199.714 392.775,199.522 401.021,198.994 403.532,198.908 405.832,199.012 
	414.869,198.72 426.412,198.441 436.653,198.104 447.113,197.375 458.659,196.997 474.818,196.627 484.76,196.276 493.192,196.057 
	501.641,195.438 514.685,195.227 522.234,194.568 "/>
<polyline fill="none" stroke="#000000" stroke-width="0.1502" points="536.479,194.412 542.896,194.402 546.715,194.174 
	551.15,193.673 559.873,193.668 571.224,193.181 "/>
<polyline fill="none" stroke="#000000" stroke-width="0.1502" points="703.101,185.729 707.918,185.646 712.134,185.538 
	717.845,185.596 722.762,185.518 726.735,186.3 730.639,186.477 732.958,186.181 "/>
<polyline fill="none" stroke="#000000" stroke-width="0.1502" points="237.426,206.687 239.001,206.758 243.296,206.577 
	249.015,206.46 256.39,206.344 263.458,206.363 269.327,206.254 277.084,206.004 284.52,206.191 291.744,206.067 299.875,205.834 
	306.353,205.602 312.755,205.367 "/>
<polyline fill="none" stroke="#000000" stroke-width="0.1502" points="352.119,204.52 358.447,204.281 366.947,204.216 
	375.672,204.16 384.916,204.279 397.197,203.708 400.742,203.493 "/>
<polyline fill="none" stroke="#000000" stroke-width="0.1502" points="65.002,169.236 67.356,169.219 75.625,169.293 
	87.144,169.515 95.46,169.642 101.732,169.525 108.344,169.625 114.659,169.66 119.325,169.571 127.393,169.637 132.146,169.853 
	133.96,169.634 134.424,169.354 134.695,168.915 137.607,168.796 144.222,168.846 153.948,168.836 163.469,168.917 173.14,169.005 
	177.947,169.123 192.875,169.349 202.492,169.535 210.266,169.437 211.318,169.434 212.287,169.077 217.236,169.402 225.88,168.892 
	231.152,168.729 237.012,168.844 240.32,168.844 252.563,168.598 257.832,168.486 261.345,168.395 266.56,168.38 272.976,168.371 
	279.548,168.268 282.46,168.15 285.669,168.145 287.766,168.341 291.373,168.403 297.496,168.23 303.058,168.282 307.426,168.129 
	313.727,168.466 318.446,168.328 321.097,168.448 325.904,168.567 328.76,168.596 337.282,168.581 339.788,168.594 343.14,168.747 
	346.512,168.449 351.626,168.43 358.252,168.229 365.079,168.038 373.21,167.805 381.683,167.788 388.813,167.51 397.933,167.624 
	401.794,167.598 409.656,167.754 412.558,167.886 416.583,167.567 423.001,167.558 430.711,166.654 435.743,166.23 438.646,166.363 
	439.732,166.712 443.141,166.716 450.971,166.47 460.771,165.962 466.044,165.75 469.657,165.664 470.351,165.846 472.499,165.993 
	479.52,165.961 482.579,165.899 483.897,165.558 491.01,165.681 495.222,165.67 498.345,165.361 500.393,165.504 502.044,165.58 
	505.905,165.554 510.715,165.622 517.888,165.496 525.92,165.259 532.54,165.208 542.264,165.198 547.732,165.146 549.594,164.979 
	551.658,164.772 552.765,164.722 560.578,164.826 571.253,164.909 579.08,164.763 588.071,164.369 596.409,163.995 602.874,164.038 
	605.211,163.342 610.925,163.4 611.504,163.878 614.262,163.853 622.125,164.009 626.828,164.222 630.649,163.945 632.364,163.722 
	633.41,163.869 635.098,164.247 637.887,164.623 640.741,164.703 649.277,164.388 658.232,163.692 660.092,163.625 661.076,164.021 
	664.982,164.099 670.751,164.01 680.876,164.017 682.58,164.044 690,164.03 692.146,164.228 696.417,164.02 703.099,163.672 
	704.448,163.784 708.354,163.861 714.485,163.538 718.142,163.603 721.157,163.439 726.785,163.143 729.74,163.177 734.853,163.208 
	"/>
<polyline fill="none" stroke="#000000" stroke-width="0.1502" points="71.065,215.657 73.369,215.712 78.188,215.58 84.21,215.401 
	90.885,215.252 98.05,215.327 104.212,215.406 109.378,215.339 115.698,215.275 122.97,215.204 132.095,215.167 134.855,215.092 
	141.231,214.879 143.99,214.854 146.352,214.712 149.362,214.647 152.719,214.699 155.327,214.667 159.946,214.526 164.055,214.562 
	168.736,214.123 172.695,214.152 176.461,214.022 178.915,214.083 182.014,214.274 186.032,214.105 190.398,214.002 195.862,214 
	201.088,213.735 207.412,213.572 213.542,213.248 217.908,213.146 220.91,213.282 224.871,213.261 227.674,213.337 231.683,213.369 
	237.907,213.2 243.872,213.221 249.291,213.116 255.709,213.056 261.774,213.08 266.743,212.955 270.956,212.895 275.063,212.98 
	279.879,212.899 284.347,212.75 286.446,212.896 290.753,212.99 299.646,212.542 305.974,212.277 311.157,211.861 317.331,211.69 
	322.049,211.554 327.972,211.371 333.897,211.138 339.872,210.959 348.199,210.835 359.384,210.69 363.998,210.649 368.201,210.84 
	372.609,210.89 376.166,210.95 381.035,210.82 385.955,210.643 391.335,210.285 396.607,210.124 404.188,209.816 414.476,209.581 
	420.452,209.351 428.381,209.159 435.96,208.951 446.51,208.478 452.636,208.254 461.767,208.067 469.388,208.062 475.462,207.886 
	478.071,207.804 486.156,207.519 491.88,207.277 499.262,207.011 507.612,206.387 513.385,206.198 525.486,205.744 533.025,205.333 
	546.748,204.502 556.251,203.881 564.092,203.435 573.999,202.731 580.637,202.281 586.713,202.055 593.846,201.727 
	599.373,201.426 607.714,201.002 613.845,200.679 618.265,200.479 622.44,200.167 628.268,199.88 633.191,199.651 641.079,199.258 
	650.423,198.83 658.561,198.446 661.828,198.244 663.921,198.539 669.095,198.323 676.736,197.817 679.688,197.951 690.576,197.744 
	701.618,197.442 712.217,196.971 721.653,196.697 731.682,196.651 "/>
<polyline fill="none" stroke="#000000" stroke-width="0.1502" points="71.065,215.657 73.369,215.712 78.188,215.58 84.21,215.401 
	90.885,215.252 98.05,215.327 104.212,215.406 109.378,215.339 115.698,215.275 122.97,215.204 132.095,215.167 134.855,215.092 
	141.231,214.879 143.99,214.854 146.352,214.712 149.362,214.647 152.719,214.699 155.327,214.667 159.946,214.526 164.055,214.562 
	168.736,214.123 172.695,214.152 176.461,214.022 178.915,214.083 182.014,214.274 186.032,214.105 190.398,214.002 195.862,214 
	201.088,213.735 207.412,213.572 213.542,213.248 217.908,213.146 220.91,213.282 224.871,213.261 227.674,213.337 231.683,213.369 
	237.907,213.2 243.872,213.221 249.291,213.116 255.709,213.056 261.774,213.08 266.743,212.955 270.956,212.895 275.063,212.98 
	279.879,212.899 284.347,212.75 286.446,212.896 290.753,212.99 299.646,212.542 305.974,212.277 311.157,211.861 317.331,211.69 
	322.049,211.554 327.972,211.371 333.897,211.138 339.872,210.959 348.199,210.835 359.384,210.69 363.998,210.649 368.201,210.84 
	372.609,210.89 376.166,210.95 381.035,210.82 385.955,210.643 391.335,210.285 396.607,210.124 404.188,209.816 414.476,209.581 
	420.452,209.351 428.381,209.159 "/>
<polyline fill="none" stroke="#000000" stroke-width="0.1502" points="71.176,215.292 72.603,215.319 73.731,215.313 
	76.534,215.272 81.388,215.191 84.869,215.104 90.813,215.017 94.5,214.959 97.037,214.999 100.304,215.091 102.408,215.111 
	107.921,215.004 112.715,214.996 117.265,214.977 119.991,214.968 123.768,215.009 127.437,214.95 130.561,214.865 134.193,214.767 
	137.32,214.646 142.174,214.527 146.375,214.343 150.099,214.304 153.067,214.345 156.83,214.29 159.521,214.224 162.792,214.204 
	165.3,214.054 167.546,213.836 169.862,213.754 172.53,213.781 176.686,213.781 179.844,213.755 182.662,213.808 185.411,213.708 
	188.173,213.719 191.802,213.715 193.647,213.648 199.524,213.389 202.892,213.334 206.468,213.233 212.086,212.886 216.36,212.742 
	218.386,212.815 220.414,212.87 224.89,212.829 228.459,212.878 230.771,212.907 233.16,212.866 238.935,212.79 244.842,212.681 
	247.739,212.624 248.961,212.624 255.184,212.624 259.493,212.538 264.89,212.482 270.251,212.424 274.256,212.38 275.479,212.379 
	282.213,212.271 286.18,212.263 290.167,212.237 297.85,211.946 301.806,211.769 305.456,211.69 309.377,211.436 312.128,211.297 
	314.31,211.283 320.807,211.032 326.486,210.972 329.142,210.866 333.077,210.725 336.5,210.692 339.683,210.574 342.469,210.493 
	344.82,210.449 349.426,210.434 352.942,210.423 356.458,210.413 360.507,210.259 362.69,210.188 364.685,210.147 366.674,210.237 
	369.056,210.345 371.085,210.381 372.739,210.381 378.02,210.433 381.104,210.385 384.872,210.217 386.303,210.151 392.447,209.809 
	396.024,209.689 399.545,209.585 404.007,209.413 410.401,209.363 413.979,209.226 416.178,209.232 427.181,209.092 428.196,209.1 
	"/>
<polyline fill="none" stroke="#000000" stroke-width="0.1502" points="65.477,171.439 71.009,171.314 79.092,171.306 87.7,171.357 
	97.463,171.613 101.599,171.612 106.628,171.802 114.557,171.899 123.924,171.798 127.772,171.484 135.34,171.263 143.42,171.329 
	150.229,171.262 164.068,171.175 170.243,170.966 176.554,171.103 182.362,171.516 189.09,171.559 197.513,171.527 205.708,171.561 
	213.43,171.234 220.079,171.348 227.039,171.287 233.618,171.285 239.671,171.259 247.913,171.106 251.042,170.91 258.111,170.892 
	263.909,170.704 269.439,170.654 274.323,170.725 282.234,170.37 288.36,170.423 292.567,170.5 297.387,170.343 301.119,170.136 
	306.269,170.145 310.066,170.167 314.685,170.301 319.636,170.526 324.753,170.457 329.977,170.506 334.147,170.545 
	341.142,170.523 347.841,170.376 354.424,170.299 358.529,170.146 363.5,169.959 368.049,169.977 373.356,169.842 381.029,169.776 
	386.607,169.465 391.608,169.467 395.776,169.581 399.092,169.431 403.928,169.725 409.571,169.643 415.769,169.773 
	423.216,169.697 427.215,169.391 429.789,169.019 430.352,169.044 432.118,169.086 437.391,168.875 438.631,168.894 
	449.477,168.483 456.786,168.138 463.371,168.022 470.218,167.92 474.163,167.986 481.349,167.898 486.091,167.775 499.367,167.663 
	507.643,167.588 515.848,167.396 522.28,167.312 530.818,167.248 536.317,167.046 543.116,167.167 548.268,167.137 553.42,167.108 
	562.621,167.337 568.078,167.209 573.648,167.085 578.621,166.859 582.837,166.75 587.914,166.718 "/>
<polyline fill="none" stroke="#000000" stroke-width="0.1502" points="397.908,186.371 387.687,187.938 381.086,189.217 
	377.625,189.285 374.47,189.217 "/>
<polyline fill="none" stroke="#000000" stroke-width="0.1502" points="677.097,172.039 681.729,172.441 686.703,172.715 
	690.822,172.806 701.52,172.667 710.636,172.506 722.064,172.113 727.249,171.965 733.476,172.104 734.102,172.037 "/>
<polyline fill="none" stroke="#000000" stroke-width="0.1502" points="259.735,198.795 263.625,198.636 269.804,198.772 
	277.903,198.852 284.269,199.092 291.843,199.101 297.352,199.207 308.73,198.86 318.983,198.99 324.267,198.798 335.102,198.81 
	352.127,198.671 359.272,198.66 368.912,198.57 375.484,198.484 381.73,198.193 388.796,197.794 395.727,197.197 397.614,196.804 
	"/>
<polyline fill="none" stroke="#000000" stroke-width="0.1502" points="259.598,198.594 259.108,199.474 258.641,199.829 
	257.293,199.692 254.415,200.164 251.024,200.31 246.403,201.078 "/>
</svg>
